<?xml version="1.0" encoding="UTF-8"?>
<svg id="Calque_1" data-name="Calque 1" xmlns="http://www.w3.org/2000/svg" viewBox="0 0 160 160">
  <defs>
    <style>
      .cls-1 {
        fill: #fff;
      }

      .cls-2 {
        fill: #233680;
      }

      .cls-3 {
        fill: #1f2937;
        stroke: #374151;
        stroke-linejoin: round;
        stroke-width: 2px;
      }

      .cls-4 {
        fill: #fbae11;
      }
    </style>
  </defs>
  <rect class="cls-3" x="1.57" y="1.57" width="156.85" height="156.85" rx="20.65" ry="20.65"/>
  <g>
    <path class="cls-2" d="M22.03,109.1v-58.2h20.86c4.48,0,8.22.83,11.21,2.5,2.99,1.67,5.23,3.92,6.72,6.76,1.48,2.84,2.23,6.05,2.23,9.65s-.75,6.82-2.25,9.67c-1.5,2.85-3.74,5.1-6.74,6.76-3,1.65-6.75,2.48-11.25,2.48h-14.26v-7.54h13.4c2.86,0,5.18-.49,6.95-1.48,1.77-.99,3.07-2.34,3.89-4.06s1.23-3.66,1.23-5.82-.41-4.13-1.23-5.84c-.82-1.71-2.12-3.04-3.91-4-1.78-.96-4.12-1.45-7.01-1.45h-10.94v50.59h-8.91Z"/>
    <path class="cls-1" d="M96.21,65.43v8.95h-28.52v-8.95h28.52ZM75.39,109.1v-47.03c0-3.1.62-5.68,1.86-7.73,1.24-2.06,2.92-3.6,5.06-4.63,2.13-1.03,4.56-1.54,7.27-1.54,1.85,0,3.54.15,5.06.45,1.52.3,2.64.55,3.34.76l-2.11,8.83c-.5-.13-1.07-.26-1.74-.39-.66-.13-1.39-.2-2.17-.2-1.77,0-3.03.42-3.77,1.27-.74.85-1.11,2.04-1.11,3.57v46.64h-11.68Z"/>
    <path class="cls-4" d="M131.05,109.84c-1.9,0-3.5-.64-4.8-1.93-1.3-1.29-1.95-2.88-1.95-4.79s.65-3.5,1.95-4.79c1.3-1.29,2.9-1.93,4.8-1.93s3.5.64,4.8,1.93c1.3,1.29,1.95,2.88,1.95,4.79s-.65,3.5-1.95,4.79c-1.3,1.29-2.9,1.93-4.8,1.93Z"/>
  </g>
</svg>