<?xml version="1.0" encoding="UTF-8"?>
<svg id="Calque_1" data-name="Calque 1" xmlns="http://www.w3.org/2000/svg" viewBox="0 0 600 200">
  <defs>
    <style>
      .cls-1 {
        fill: #fff;
      }

      .cls-2 {
        fill: #233680;
      }

      .cls-3 {
        fill: #1f2937;
        stroke: #374151;
        stroke-miterlimit: 10;
        stroke-width: 5px;
      }

      .cls-4 {
        fill: #fbae11;
      }
    </style>
  </defs>
  <rect class="cls-3" x="4.59" y="3.65" width="590.82" height="192.69" rx="26.99" ry="26.99"/>
  <g>
    <path class="cls-2" d="M62.62,140.01V59.98h29.92c6.12,0,11.28,1.15,15.47,3.44,4.19,2.29,7.36,5.43,9.51,9.43,2.15,3.99,3.22,8.53,3.22,13.62s-1.08,9.67-3.25,13.64c-2.17,3.97-5.36,7.11-9.59,9.4-4.23,2.29-9.42,3.44-15.58,3.44h-19.82v-11.82h17.94c3.62,0,6.58-.63,8.89-1.88,2.31-1.25,4.01-2.99,5.1-5.21s1.64-4.74,1.64-7.57-.55-5.34-1.64-7.52c-1.09-2.18-2.8-3.88-5.13-5.1-2.33-1.22-5.32-1.83-8.97-1.83h-13.37v68h-14.34Z"/>
    <path class="cls-2" d="M148.72,141.25c-3.8,0-7.22-.69-10.26-2.07-3.04-1.38-5.44-3.41-7.2-6.1-1.75-2.69-2.63-6-2.63-9.94,0-3.4.64-6.21,1.91-8.43,1.27-2.22,2.99-3.99,5.16-5.32,2.17-1.32,4.61-2.33,7.33-3.01,2.72-.68,5.55-1.16,8.49-1.45,3.47-.39,6.3-.73,8.49-1.02,2.18-.29,3.79-.75,4.81-1.4s1.53-1.65,1.53-3.01v-.27c0-1.97-.39-3.64-1.18-5.02-.79-1.38-1.96-2.44-3.52-3.17s-3.48-1.1-5.77-1.1-4.34.36-6.04,1.07c-1.7.72-3.09,1.65-4.16,2.79s-1.86,2.38-2.36,3.71l-12.94-2.63c1.18-3.54,3.01-6.47,5.48-8.78,2.47-2.31,5.42-4.04,8.84-5.18,3.42-1.15,7.13-1.72,11.15-1.72,2.83,0,5.68.33,8.57.99,2.88.66,5.52,1.78,7.92,3.36,2.4,1.58,4.33,3.69,5.8,6.34s2.2,5.98,2.2,9.99v40.12h-13.37v-8.27h-.54c-.9,1.68-2.12,3.25-3.68,4.7s-3.49,2.61-5.8,3.49c-2.31.88-5.04,1.32-8.19,1.32ZM152.32,130.88c2.9,0,5.4-.57,7.49-1.72,2.09-1.15,3.72-2.66,4.89-4.54,1.16-1.88,1.75-3.93,1.75-6.15v-7.09c-.47.36-1.24.7-2.34,1.02-1.09.32-2.31.61-3.65.86-1.34.25-2.67.47-3.97.64-1.31.18-2.41.32-3.3.43-2.08.29-3.96.75-5.64,1.4-1.68.64-3,1.55-3.95,2.71-.95,1.16-1.42,2.68-1.42,4.54,0,1.72.44,3.16,1.32,4.32.88,1.16,2.08,2.05,3.6,2.66,1.52.61,3.27.91,5.24.91Z"/>
    <path class="cls-2" d="M226.71,79.97v10.96h-37.92v-10.96h37.92ZM199.8,140.01v-65.8c0-4.01.83-7.34,2.5-9.99,1.67-2.65,3.92-4.65,6.77-5.99s5.97-2.01,9.37-2.01c2.47,0,4.65.2,6.55.59,1.9.39,3.29.75,4.19,1.07l-2.85,10.85c-.61-.18-1.35-.37-2.23-.56-.88-.2-1.91-.3-3.09-.3-2.61,0-4.48.64-5.61,1.93s-1.69,3.12-1.69,5.48v64.72h-13.91Z"/>
    <path class="cls-1" d="M272.31,79.97v13.91h-40.77v-13.91h40.77ZM241.64,140.01v-63.27c0-4.58.86-8.4,2.58-11.44,1.72-3.04,4.12-5.32,7.2-6.82,3.08-1.5,6.62-2.26,10.63-2.26,2.65,0,5.15.21,7.49.62,2.35.41,4.06.78,5.13,1.1l-3.01,13.7c-.72-.18-1.56-.35-2.52-.51s-1.93-.24-2.9-.24c-2.22,0-3.77.51-4.65,1.53-.88,1.02-1.32,2.41-1.32,4.16v63.43h-18.64Z"/>
    <path class="cls-1" d="M300.46,59.98v80.03h-18.75V59.98h18.75Z"/>
    <path class="cls-1" d="M340.74,141.14c-6.27,0-11.66-1.3-16.17-3.89-4.51-2.6-7.98-6.21-10.39-10.85-2.42-4.64-3.63-10.03-3.63-16.19s1.21-11.61,3.63-16.25,5.88-8.25,10.39-10.85c4.51-2.6,9.9-3.89,16.17-3.89s11.66,1.3,16.17,3.89c4.51,2.6,7.97,6.21,10.37,10.85,2.4,4.64,3.6,10.05,3.6,16.25s-1.2,11.56-3.6,16.19c-2.4,4.64-5.85,8.25-10.37,10.85-4.51,2.6-9.9,3.89-16.17,3.89ZM340.74,126.8c2.4,0,4.42-.7,6.07-2.09,1.65-1.4,2.89-3.35,3.73-5.85.84-2.51,1.26-5.42,1.26-8.75s-.42-6.24-1.26-8.73c-.84-2.49-2.09-4.41-3.73-5.77-1.65-1.36-3.67-2.04-6.07-2.04s-4.42.68-6.07,2.04c-1.65,1.36-2.89,3.29-3.73,5.77-.84,2.49-1.26,5.4-1.26,8.73s.42,6.25,1.26,8.75c.84,2.51,2.08,4.46,3.73,5.85,1.65,1.4,3.67,2.09,6.07,2.09Z"/>
    <path class="cls-1" d="M398.85,141.09c-3.83,0-7.24-.65-10.23-1.96-2.99-1.31-5.33-3.28-7.01-5.91-1.68-2.63-2.52-5.92-2.52-9.86,0-3.33.58-6.14,1.75-8.43,1.16-2.29,2.78-4.15,4.86-5.59,2.08-1.43,4.46-2.52,7.14-3.28s5.55-1.25,8.59-1.5c3.4-.29,6.14-.6,8.22-.94,2.08-.34,3.6-.85,4.57-1.53.97-.68,1.45-1.63,1.45-2.85v-.21c0-1.4-.32-2.58-.97-3.54s-1.58-1.7-2.79-2.2c-1.22-.5-2.69-.75-4.4-.75s-3.25.25-4.59.75-2.44,1.22-3.3,2.15-1.47,2.02-1.83,3.28l-16.97-2.2c.79-3.44,2.34-6.45,4.65-9.05s5.33-4.62,9.08-6.07c3.74-1.45,8.12-2.18,13.13-2.18,3.72,0,7.21.44,10.45,1.32,3.24.88,6.08,2.17,8.51,3.87,2.43,1.7,4.33,3.8,5.69,6.28,1.36,2.49,2.04,5.34,2.04,8.57v40.77h-17.62v-8.43h-.48c-1.07,2.08-2.44,3.81-4.11,5.21s-3.6,2.46-5.8,3.2c-2.2.73-4.7,1.1-7.49,1.1ZM404.55,128.68c2.11,0,4.02-.43,5.72-1.29,1.7-.86,3.05-2.04,4.05-3.54,1-1.5,1.5-3.24,1.5-5.21v-5.75c-.54.29-1.21.56-2.01.81-.81.25-1.69.47-2.66.67-.97.2-1.93.38-2.9.54s-1.9.31-2.79.46c-1.83.25-3.38.68-4.67,1.29-1.29.61-2.27,1.4-2.95,2.36-.68.97-1.02,2.13-1.02,3.49s.34,2.44,1.02,3.36c.68.91,1.59,1.61,2.74,2.09,1.15.48,2.47.73,3.97.73Z"/>
    <path class="cls-1" d="M479.15,79.97v13.91h-37.49v-13.91h37.49ZM449.61,65.68h18.75v55.97c0,1.58.38,2.75,1.13,3.52.75.77,1.97,1.16,3.65,1.16.64,0,1.55-.07,2.71-.21,1.16-.14,2-.29,2.5-.43l2.42,13.64c-2.11.61-4.15,1.02-6.12,1.24-1.97.21-3.83.32-5.59.32-6.37,0-11.21-1.5-14.5-4.49-3.29-2.99-4.94-7.35-4.94-13.08v-57.63Z"/>
    <path class="cls-4" d="M526.04,141.14c-2.87,0-5.27-.96-7.22-2.87-1.95-1.92-2.93-4.3-2.93-7.17s.98-5.2,2.93-7.12c1.95-1.92,4.36-2.87,7.22-2.87s5.27.96,7.22,2.87c1.95,1.92,2.93,4.29,2.93,7.12s-.98,5.25-2.93,7.17c-1.95,1.92-4.36,2.87-7.22,2.87Z"/>
  </g>
</svg>